<svg width="1540" height="341" viewBox="0 0 1540 341" fill="none" xmlns="http://www.w3.org/2000/svg">
<path fill-rule="evenodd" clip-rule="evenodd" d="M1476.56 178.683C1476.56 242.457 1424.36 294.156 1359.98 294.156C1295.6 294.156 1243.4 242.457 1243.4 178.683C1243.4 114.909 1295.6 63.2105 1359.98 63.2105C1424.36 63.2105 1476.56 114.909 1476.56 178.683ZM1540 178.683C1540 277.164 1459.4 356.999 1359.98 356.999C1260.56 356.999 1179.96 277.164 1179.96 178.683C1179.96 80.2026 1260.56 0.368164 1359.98 0.368164C1459.4 0.368164 1540 80.2026 1540 178.683ZM231.938 150.413V356.289H299.587L299.587 305.757V150.413C299.587 105.461 336.364 69.0202 381.732 69.0202C427.099 69.0202 463.876 105.461 463.876 150.413V356.289H531.525V150.413C531.525 68.4417 464.46 1.9908 381.732 1.9908C334.981 1.9908 293.233 23.2117 265.763 56.4623C238.292 23.2117 196.544 1.9908 149.793 1.9908C67.0648 1.9908 0 68.4417 0 150.413V356.289H67.6486V150.413C67.6486 105.461 104.426 69.0202 149.793 69.0202C195.161 69.0202 231.938 105.461 231.938 150.413ZM978.662 170.569C978.662 77.4704 1054.83 1.9908 1148.8 1.9908H1196.32V68.6708H1148.8C1092 68.6708 1045.96 114.295 1045.96 170.569V354.644H978.662V170.569ZM719.524 334.606C745.281 349.536 774.812 357 808.118 357C848.085 357 881.613 346.462 908.702 325.385C936.235 304.309 953.554 275.328 960.659 238.444L896.712 226.589C892.271 250.3 882.279 268.742 866.736 281.915C851.194 294.648 831.876 301.015 808.784 301.015C777.699 301.015 752.608 289.818 733.513 267.425C714.418 245.031 704.87 215.611 704.87 179.166C704.87 142.721 714.418 113.521 733.513 91.5665C752.608 69.1725 777.699 57.9756 808.784 57.9756C830.544 57.9756 849.195 64.3425 864.738 77.0763C880.281 89.8101 890.05 106.276 894.047 126.475H896.712L957.994 115.278C952.221 80.5891 935.569 53.1455 908.036 32.9471C880.947 12.3096 847.641 1.9908 808.118 1.9908C774.812 1.9908 745.281 9.45544 719.524 24.3847C693.768 39.314 673.784 60.1711 659.574 86.9559C645.363 113.741 638.258 144.478 638.258 179.166C638.258 213.855 645.363 244.811 659.574 272.035C673.784 298.82 693.768 319.677 719.524 334.606ZM552.343 356.289V1.9908H619.991V356.289H552.343Z" fill="black" style="fill:black;fill-opacity:1;"/>
</svg>
