<svg width="131" height="37" viewBox="0 0 131 37" fill="none" xmlns="http://www.w3.org/2000/svg">
<path d="M15.997 0.527415C16.547 0.138785 17.3644 0.538845 17.9407 0.942715C21.7478 3.592 25.8235 5.17446 30.168 5.69009C30.4293 5.7213 30.6743 5.83486 30.8684 6.01469C31.0624 6.19453 31.1956 6.43153 31.2491 6.69215C32.9931 15.0629 31.7388 25.2206 25.3012 31.4349C22.9055 33.7489 19.9975 35.433 16.5771 36.4871C16.4388 36.5295 16.2921 36.5348 16.1515 36.5023C13.0376 35.7657 10.4422 34.5071 8.36539 32.7265C0.839205 26.2722 -0.479195 16.2098 1.20459 6.69215C1.30253 6.13587 1.67294 5.79677 2.31581 5.67485C4.81701 5.2024 6.70421 4.78456 7.9774 4.42133C10.8251 3.60597 13.4984 2.308 15.997 0.527415ZM14.6221 19.8103L12.2264 17.3757C12.1333 17.2805 12.0224 17.205 11.9002 17.1534C11.778 17.1019 11.6469 17.0753 11.5145 17.0753C11.3821 17.0753 11.251 17.1019 11.1288 17.1534C11.0066 17.205 10.8957 17.2805 10.8025 17.3757L10.7385 17.4366C10.6407 17.5288 10.5623 17.6401 10.508 17.7639C10.4537 17.8877 10.4247 18.0214 10.4226 18.1572C10.4205 18.2929 10.4454 18.4279 10.4957 18.5542C10.5461 18.6804 10.621 18.7953 10.7159 18.8921L14.0044 22.2297C14.0592 22.2852 14.123 22.3303 14.1927 22.3631C14.7804 22.6298 15.2977 22.5358 15.7447 22.0811C16.3599 21.4537 18.394 19.3975 21.847 15.9126C21.9447 15.8139 22.022 15.6966 22.0746 15.5675C22.1271 15.4384 22.1538 15.3 22.1531 15.1604C22.1524 15.0208 22.1243 14.8827 22.0705 14.7541C22.0166 14.6255 21.9381 14.509 21.8394 14.4114L21.7792 14.3504C21.6912 14.2556 21.5852 14.1796 21.4676 14.127C21.35 14.0743 21.2232 14.0461 21.0946 14.044C20.966 14.0419 20.8384 14.0659 20.7191 14.1146C20.5999 14.1633 20.4915 14.2357 20.4005 14.3276L14.9762 19.8103C14.9531 19.834 14.9255 19.8529 14.8951 19.8657C14.8647 19.8786 14.8321 19.8852 14.7992 19.8852C14.7662 19.8852 14.7336 19.8786 14.7032 19.8657C14.6728 19.8529 14.6453 19.834 14.6221 19.8103Z" fill="white" style="fill:white;fill-opacity:1;"/>
<path d="M84.2999 10.086C85.5313 10.0686 86.5166 9.10783 86.5004 7.94008C86.4843 6.77233 85.4729 5.83979 84.2415 5.85718C83.01 5.87457 82.0248 6.83532 82.0409 8.00307C82.057 9.17082 83.0684 10.1034 84.2999 10.086Z" fill="white" style="fill:white;fill-opacity:1;"/>
<path d="M52.4878 25.8423L52.7515 25.8347C54.3411 25.822 55.5452 25.2098 56.3639 23.9982C56.4238 23.9098 56.4708 23.8122 56.5033 23.7086C57.2114 21.5026 55.667 20.5805 53.7987 19.9785C53.3265 19.8287 51.87 19.4312 49.4291 18.786C48.3417 18.499 47.1941 17.8525 45.9862 16.8466C44.9666 15.9983 44.4681 14.6927 44.4907 12.9299C44.5159 11.1442 45.2454 9.66589 46.6793 8.49492C49.1391 6.487 52.7552 6.18219 55.6595 7.10804C58.4871 8.00722 60.0529 9.93259 60.3568 12.8841C60.3584 12.8966 60.3573 12.9092 60.3537 12.9212C60.3501 12.9332 60.344 12.9443 60.3358 12.9536C60.3275 12.963 60.3174 12.9705 60.3061 12.9756C60.2948 12.9807 60.2825 12.9833 60.2701 12.9832H56.6389C56.6114 12.9836 56.5847 12.9738 56.5634 12.9557C56.542 12.9376 56.5274 12.9123 56.5221 12.8841C56.2433 11.3728 55.2954 10.4495 53.6781 10.1142C52.0094 9.76749 49.3764 10.0609 48.6757 11.9583C47.8922 14.0881 49.6513 15.254 51.5272 15.7303C53.2939 16.1761 55.6143 16.618 57.5768 17.7077C60.4133 19.2851 61.3324 22.3827 60.0592 25.3889C59.2983 27.1834 57.3847 28.4446 55.4485 28.9094C50.5253 30.0829 44.4267 28.7722 43.9031 22.6647C43.9005 22.6326 43.9045 22.6003 43.9149 22.5699C43.9253 22.5394 43.9418 22.5115 43.9634 22.4879C43.985 22.4642 44.0112 22.4454 44.0404 22.4325C44.0696 22.4197 44.1011 22.4131 44.1329 22.4132H47.5193C47.5819 22.4128 47.6425 22.4344 47.6907 22.4741C47.7389 22.5137 47.7715 22.569 47.783 22.6304C48.2388 25.0307 50.2239 25.968 52.4878 25.8423Z" fill="white" style="fill:white;fill-opacity:1;"/>
<path d="M74.5571 28.7065C74.5521 23.6467 74.5546 20.9098 74.5646 20.4958C74.6174 18.2059 74.4102 15.8817 71.973 15.5541C69.5284 15.2226 67.8107 16.7276 67.8107 19.227C67.8157 22.4656 67.8195 25.6242 67.822 28.7027C67.822 28.7332 67.816 28.7635 67.8045 28.7916C67.7929 28.8198 67.776 28.8455 67.7547 28.8671C67.7333 28.8886 67.708 28.9058 67.6801 28.9174C67.6522 28.9291 67.6224 28.9351 67.5922 28.9351H64.1945C64.1325 28.9351 64.0731 28.9106 64.0293 28.8671C63.9855 28.8235 63.9609 28.7643 63.9609 28.7027V7.04614C63.9609 7.01784 63.9721 6.99071 63.9918 6.9707C64.0116 6.95069 64.0384 6.93945 64.0664 6.93945H67.6073C67.6392 6.93945 67.6699 6.9523 67.6925 6.97516C67.7151 6.99803 67.7278 7.02904 67.7278 7.06138V15.0626C67.7256 15.0958 67.7354 15.1287 67.7554 15.1551C67.7754 15.1815 67.8042 15.1997 67.8365 15.2062C67.8688 15.2127 67.9023 15.2072 67.9308 15.1906C67.9593 15.174 67.9809 15.1474 67.9915 15.1159C69.1328 12.346 72.2217 11.7059 74.8208 12.5441C77.4086 13.3747 78.3805 15.7827 78.4031 18.3659C78.4156 19.4861 78.4194 22.9304 78.4144 28.6989C78.4144 28.7626 78.3894 28.8236 78.3449 28.8686C78.3004 28.9136 78.24 28.9389 78.1771 28.9389H74.7869C74.726 28.9389 74.6675 28.9144 74.6244 28.8709C74.5813 28.8273 74.5571 28.7682 74.5571 28.7065Z" fill="white" style="fill:white;fill-opacity:1;"/>
<path d="M111.566 6.93945H107.995C107.916 6.93945 107.852 7.00428 107.852 7.08424V28.7942C107.852 28.8741 107.916 28.9389 107.995 28.9389H111.566C111.645 28.9389 111.709 28.8741 111.709 28.7942V7.08424C111.709 7.00428 111.645 6.93945 111.566 6.93945Z" fill="white" style="fill:white;fill-opacity:1;"/>
<path d="M126.467 15.0891C126.476 15.1004 126.488 15.1085 126.502 15.1123C126.516 15.1161 126.53 15.1154 126.544 15.1103C126.557 15.1053 126.568 15.0961 126.576 15.0841C126.584 15.0721 126.588 15.0578 126.588 15.0434V7.16034C126.588 7.13082 126.593 7.10159 126.605 7.07432C126.616 7.04704 126.633 7.02226 126.654 7.00139C126.675 6.98051 126.7 6.96396 126.727 6.95266C126.755 6.94136 126.784 6.93555 126.814 6.93555H130.226C130.284 6.93555 130.34 6.95883 130.381 7.00027C130.422 7.04172 130.445 7.09792 130.445 7.15653V28.7102C130.445 28.7709 130.421 28.829 130.379 28.8719C130.336 28.9148 130.279 28.9388 130.219 28.9388H126.851C126.793 28.9388 126.738 28.9156 126.697 28.8741C126.656 28.8327 126.633 28.7765 126.633 28.7179V26.508C126.633 26.4752 126.622 26.4433 126.602 26.4174C126.582 26.3914 126.554 26.3729 126.523 26.3646C126.492 26.3563 126.458 26.3588 126.428 26.3717C126.399 26.3845 126.374 26.407 126.358 26.4356C123.985 30.8591 118.044 29.6818 116.082 25.7231C113.795 21.1129 114.775 12.7078 121.435 12.2125C123.265 12.0754 124.705 12.7218 125.755 14.1519C125.989 14.4694 126.226 14.7818 126.467 15.0891ZM118.933 20.7205C118.941 23.178 119.868 26.0317 122.806 26.0241C125.748 26.0165 126.659 23.1589 126.652 20.6976C126.644 18.2363 125.717 15.3825 122.779 15.394C119.837 15.4016 118.93 18.2591 118.933 20.7205Z" fill="white" style="fill:white;fill-opacity:1;"/>
<path d="M93.2293 22.0431C93.5106 24.7915 94.9194 26.186 97.4557 26.2266C99.0554 26.2546 100.179 25.5814 100.827 24.2073C100.842 24.1771 100.865 24.1521 100.894 24.1358C100.923 24.1194 100.956 24.1125 100.989 24.1158L104.353 24.5007C104.366 24.5024 104.378 24.5068 104.389 24.5137C104.4 24.5206 104.409 24.5297 104.416 24.5406C104.423 24.5514 104.428 24.5636 104.43 24.5764C104.432 24.5893 104.432 24.6024 104.428 24.615C103.588 27.7735 100.703 29.2595 97.5612 29.2595C93.1565 29.2595 90.5009 27.1195 89.5943 22.8395C89.1009 20.5077 89.5529 17.2081 91.0182 15.2421C92.6404 13.0678 94.8365 12.067 97.6064 12.2398C102.85 12.5598 104.937 16.7204 104.579 21.5478C104.575 21.6017 104.551 21.6522 104.512 21.6889C104.473 21.7257 104.421 21.7461 104.368 21.746H93.4968C93.4593 21.7458 93.4222 21.7535 93.3879 21.7688C93.3536 21.784 93.3229 21.8064 93.2977 21.8344C93.2725 21.8624 93.2534 21.8954 93.2416 21.9314C93.2298 21.9674 93.2256 22.0054 93.2293 22.0431ZM93.4327 19.1322H100.861C100.871 19.1322 100.882 19.1302 100.891 19.1261C100.901 19.1221 100.91 19.1162 100.917 19.1088C100.924 19.1014 100.93 19.0925 100.934 19.0828C100.938 19.0731 100.94 19.0627 100.94 19.0522V18.9951C100.94 17.9947 100.543 17.0353 99.8368 16.3279C99.1304 15.6205 98.1723 15.2231 97.1732 15.2231H97.1205C96.1215 15.2231 95.1634 15.6205 94.4569 16.3279C93.7505 17.0353 93.3536 17.9947 93.3536 18.9951V19.0522C93.3536 19.0627 93.3557 19.0731 93.3597 19.0828C93.3636 19.0925 93.3695 19.1014 93.3768 19.1088C93.3842 19.1162 93.3929 19.1221 93.4025 19.1261C93.4121 19.1302 93.4224 19.1322 93.4327 19.1322Z" fill="white" style="fill:white;fill-opacity:1;"/>
<path d="M84.5843 12.4111H84.961L85.9743 12.434C86.0299 12.436 86.0826 12.4597 86.1213 12.5002C86.1599 12.5408 86.1815 12.5949 86.1815 12.6512V28.7031C86.1815 28.7331 86.1757 28.7628 86.1646 28.7906C86.1534 28.8183 86.137 28.8435 86.1164 28.8647C86.0958 28.886 86.0713 28.9028 86.0443 28.9143C86.0173 28.9258 85.9884 28.9317 85.9592 28.9317H82.5653C82.5014 28.9317 82.44 28.906 82.3948 28.8603C82.3496 28.8145 82.3242 28.7525 82.3242 28.6878V12.6435C82.3242 12.5876 82.3459 12.5339 82.3847 12.494C82.4234 12.4541 82.4761 12.4312 82.5314 12.4302L84.5843 12.4111Z" fill="white" style="fill:white;fill-opacity:1;"/>
<path d="M14.9796 19.8104L20.4038 14.3277C20.4949 14.2358 20.6032 14.1634 20.7225 14.1147C20.8417 14.0659 20.9694 14.0419 21.0979 14.0441C21.2265 14.0462 21.3534 14.0744 21.471 14.1271C21.5885 14.1797 21.6945 14.2557 21.7825 14.3505L21.8428 14.4115C21.9414 14.5091 22.02 14.6256 22.0738 14.7542C22.1277 14.8828 22.1557 15.0209 22.1564 15.1605C22.1571 15.3001 22.1304 15.4385 22.0779 15.5676C22.0253 15.6967 21.948 15.814 21.8503 15.9127C18.3973 19.3976 16.3632 21.4538 15.748 22.0812C15.301 22.5359 14.7837 22.6299 14.196 22.3632C14.1263 22.3304 14.0625 22.2852 14.0077 22.2298L10.7192 18.8922C10.6243 18.7954 10.5495 18.6805 10.4991 18.5543C10.4487 18.428 10.4238 18.293 10.4259 18.1573C10.428 18.0215 10.4571 17.8878 10.5113 17.764C10.5656 17.6402 10.644 17.5289 10.7418 17.4367L10.8059 17.3757C10.899 17.2806 11.0099 17.2051 11.1321 17.1535C11.2543 17.102 11.3854 17.0754 11.5178 17.0754C11.6502 17.0754 11.7813 17.102 11.9035 17.1535C12.0257 17.2051 12.1366 17.2806 12.2297 17.3757L14.6255 19.8104C14.6486 19.8341 14.6762 19.853 14.7066 19.8658C14.7369 19.8787 14.7696 19.8853 14.8025 19.8853C14.8355 19.8853 14.8681 19.8787 14.8985 19.8658C14.9289 19.853 14.9564 19.8341 14.9796 19.8104Z" fill="black" style="fill:black;fill-opacity:1;"/>
</svg>
